<?xml version="1.0" encoding="utf-8"?>
<!-- Generator: Adobe Illustrator 24.0.1, SVG Export Plug-In . SVG Version: 6.00 Build 0)  -->
<svg version="1.1" id="Layer_1" xmlns="http://www.w3.org/2000/svg" xmlns:xlink="http://www.w3.org/1999/xlink" x="0px" y="0px"
	 viewBox="0 0 43.5 17" style="enable-background:new 0 0 43.5 17;" xml:space="preserve">
<style type="text/css">
	.st0{fill:#0D6FB7;}
	.st1{fill:#F58732;}
</style>
<g>
	<path class="st0" d="M12.7,5.8c-0.3-0.6-0.6-1.2-0.9-1.8c-0.2-0.5-0.5-0.8-1.1-0.9C9.4,3,8.1,2.8,6.6,2.6C6.6,4.6,6.5,6.4,6.4,8.4
		c1.9,0,3.8,0,5.6,0c0,0.1,0.1,0.2,0.1,0.3C11.9,8.8,11.7,9,11.6,9C10,9.2,8.4,9.3,6.9,9.4c-0.2,0-0.4,0.2-0.4,0.3
		c0,1.8,0,3.6,0,5.4c1.8,0.1,3.6,0,5.3-0.5c0.2-0.1,0.4-0.2,0.5-0.4c0.4-0.5,0.7-1.1,1.1-1.6c0.1-0.1,0.2-0.1,0.3-0.2
		c0.1,0.1,0.2,0.3,0.2,0.4c-0.2,1-0.3,1.9-0.6,2.8c0,0.1-0.4,0.3-0.6,0.3c-2.6,0-5.2-0.1-7.7-0.1c-1.1,0-2.2,0.1-3.3,0.1
		c-0.2,0-0.3-0.1-0.5-0.2c0.1-0.1,0.3-0.3,0.4-0.4C2.7,15,2.8,15,2.7,13.9c0-3.4-0.1-6.9-0.1-10.3c0-0.5-0.1-0.7-0.6-0.8
		c-0.3,0-0.8,0.1-0.8-0.4c0-0.1,0.6-0.2,0.9-0.2c3.3,0,6.7,0,10-0.1C13,2.1,13,2.1,13,3c0,0.7,0.1,1.5,0.1,2.2
		c0,0.2-0.1,0.4-0.2,0.7C12.9,5.8,12.8,5.8,12.7,5.8z"/>
	<path class="st0" d="M38.6,5.5c0.6,0.1,1.3,0.1,2,0.2c0.5,0.1,0.8,0.3,0.8,0.9c0,0.6,0.1,1.2,0.1,1.8c0,0.2-0.2,0.3-0.2,0.5
		c-0.1-0.1-0.3-0.2-0.4-0.3c-0.3-0.5-0.5-1-0.8-1.4c-0.3-0.3-0.6-0.6-1-0.8c-0.9-0.3-1.8-0.4-2.7,0c-0.3,0.1-0.6,0.3-0.8,0.5
		c-0.7,0.6-0.6,1.5,0.3,1.9c0.9,0.4,2,0.6,2.9,0.8c0.6,0.2,1.2,0.3,1.7,0.5c1.7,0.7,2,2.4,0.8,3.7c-0.8,0.9-1.9,1.4-3.1,1.6
		c-1.9,0.4-3.8,0.6-5.7,0.2c-0.4-0.1-0.7-0.2-0.7-0.7c0-0.6-0.2-1.3-0.2-1.9c0-0.2,0.2-0.3,0.3-0.5c0.1,0.1,0.3,0.2,0.4,0.3
		c0.2,0.3,0.4,0.6,0.5,0.9c0.4,1,1.3,1.4,2.3,1.4c0.6,0,1.3,0,1.9-0.1c0.4-0.1,0.8-0.3,1.1-0.6c0.7-0.6,0.6-1.5-0.3-1.9
		c-0.7-0.3-1.4-0.4-2.2-0.6c-0.8-0.2-1.6-0.3-2.3-0.6c-1.9-0.7-2.3-2.7-0.7-4c1.1-1,2.5-1.4,3.9-1.7C37.2,5.6,37.9,5.6,38.6,5.5z"/>
	<path class="st0" d="M19.7,15c0.9,0.1,1.6,0.2,2.4,0.4c0.1,0,0.1,0.2,0.2,0.3c-0.2,0-0.4,0.1-0.6,0.1c-2.2,0-4.4,0-6.5,0
		c-0.1,0-0.3-0.1-0.4-0.2c0.1-0.1,0.2-0.3,0.4-0.3c0.4-0.1,0.9-0.1,1.3-0.2c0-1,0-2,0-2.9c0-1.6-0.1-3.2-0.1-4.8
		c0-0.5-0.2-0.8-0.8-0.8c-0.1,0-0.2,0-0.2,0c-0.2-0.1-0.4-0.2-0.6-0.3C14.8,6.2,15,6.1,15.2,6c1.2-0.2,2.4-0.3,3.6-0.4
		c0.2,0,0.5,0,0.7-0.1C20,5.5,20.1,5.7,20,6.1c-0.1,1.2-0.1,2.5-0.2,3.7c0,0.3,0,0.7,0,1c0.3-0.9,0.6-1.8,1.1-2.6
		c0.4-0.8,1.1-1.5,1.7-2.1c0.5-0.5,1.3-0.6,2.1-0.6c0.5,0,0.8,0.2,0.8,0.8c0,0.9,0.1,1.7,0.1,2.6c0,0.2-0.1,0.3-0.2,0.5
		c-0.1-0.1-0.3-0.2-0.4-0.3c-0.3-0.4-0.5-0.8-0.7-1.1c-0.4-0.6-0.9-0.7-1.5-0.4c-0.5,0.3-1,0.8-1.3,1.3c-0.9,1.5-1.4,3.3-1.6,5
		C19.8,14.3,19.7,14.6,19.7,15z"/>
	<path class="st1" d="M27.8,15.7c-0.3-2.6,0.1-5.1,0.3-7.6c-0.5,0-1,0.1-1.4,0c-0.6-0.1-0.7-0.5-0.2-1c0.9-0.8,1.8-1.5,2.7-2.3
		c0.1-0.1,0.3-0.2,0.4-0.3c0.5-0.2,0.9,0,1,0.5c0.1,0.7,0.2,1.4,0.4,2c0.1,0.4,0.2,0.8,0.4,1.4c-0.4-0.4-0.7-0.7-1-1
		c-0.7,2.7-0.9,5.6-2.1,8.3C28,15.7,27.9,15.7,27.8,15.7z"/>
	<path class="st1" d="M31.4,2.6c0,0.8-0.7,1.5-1.5,1.5c-0.8,0-1.5-0.7-1.5-1.5c0-0.8,0.7-1.5,1.5-1.5C30.8,1.1,31.4,1.7,31.4,2.6z"
		/>
</g>
</svg>
